<svg width="64" height="64" viewBox="0 0 64 64" fill="none" xmlns="http://www.w3.org/2000/svg">
  <defs>
    <linearGradient id="albumGradient" x1="0" y1="0" x2="1" y2="1">
      <stop offset="0%" stop-color="#111827" />
      <stop offset="100%" stop-color="#1f2937" />
    </linearGradient>
  </defs>
  <rect width="64" height="64" rx="10" fill="url(#albumGradient)" />
  <circle cx="32" cy="32" r="20" stroke="#3b82f6" stroke-width="2" opacity="0.5" />
  <path
    d="M26 39c0 2.21-1.79 4-4 4s-4-1.79-4-4 1.79-4 4-4c0.73 0 1.41 0.2 2 0.54V22l20-4v4l-16 3v12.46c0.61-0.34 1.29-0.54 2-0.54 2.21 0 4 1.79 4 4s-1.79 4-4 4-4-1.79-4-4Z"
    fill="#9ca3af"
  />
</svg>
